#!OML:ASF F:\VICON\USERDATA\INSTALL\rory3\rory3.ASF
:FULLY-SPECIFIED
:DEGREES
1
root -6.030071864391772 17.84280411713973 0.23327499895452014 -105.45199797112778 85.36608311074141 -123.6789969289168
lfemur -31.66058853208046 10.187096191835652 -8.675576994717336
ltibia 27.97620102900822
lfoot -10.035488373530427 -3.1085034495761725
ltoes -21.679993220929514
rfemur -29.75959213193598 -2.030506258405217 11.75451117753441
rtibia 25.08899930157259
rfoot -7.488892359009154 -9.98055975039449
rtoes -5.720991975140009
lowerback 0.19146464943120467 2.19839970340338 -1.3329786768405454
upperback 3.7641000612570217 2.9482794748911765 3.8634256359091617
thorax 3.504521601598954 1.407408884558299 4.829014429554967
lowerneck -15.614084184766398 -2.385168652530609 1.0502050196163153
upperneck 39.522579047791325 -0.4121351677183811 -3.8765122295738346
head 16.97087657528874 0.02630083490693963 -1.832345929942984
lclavicle -5.0081948824397895e-15 -1.0203021010368918e-14
lhumerus -10.238578552632674 -51.11539361177711 110.21897776582803
lradius 22.0672103841737
lwrist 29.740992347951
lhand -7.02238546562152 71.54007882292244
lfingers 7.125020000000001
lthumb -161.15100550491022 79.35319906455808
rclavicle -5.0081948824397895e-15 -1.0203021010368918e-14
rhumerus -6.915539563300172 -0.8999050784014333 -102.46898330759697
rradius 22.29001764656317
rwrist -41.717291406615026
rhand -14.857616158170313 -7.408995406641029
rfingers 7.125020000000001
rthumb 11.302083820273225 -37.08448483536034
2
root -6.036681730922965 17.83900433930025 0.23223800290193825 -107.76999768336145 85.23518315407418 -126.02399662469278
lfemur -31.89868831775492 10.077796256856836 -8.632587038444374
ltibia 28.218000655975672
lfoot -10.092288331012124 -3.2839133837161825
ltoes -20.641193537091024
rfemur -30.00329202235863 -2.0835162127224516 11.739911197762204
rtibia 25.568098787226965
rfoot -7.828422173935951 -9.973459753174057
rtoes -4.7442426210175235
lowerback 0.19537564294102783 2.2487996536162993 -1.1306888485219555
upperback 3.7709700524691794 3.013149425525021 3.8680256271675697
thorax 3.512871584538579 1.4464588210514708 4.72091464754633
lowerneck -15.642584112178831 -2.4707286026550332 0.9348933580832751
upperneck 39.536879032063894 -0.5324521189204434 -3.786332361624285
head 16.982676538840515 -0.02516532034895616 -1.7930462970664627
lclavicle -5.008195301324428e-15 -1.0203021539510821e-14
lhumerus -10.142878579347851 -53.18149304262097 109.99997786188294
lradius 22.189810324437637
lwrist 29.656292400363494
lhand -5.737946455685266 70.81117913605597
lfingers 7.125020000000001
lthumb -159.9160064958155 80.20689901450804
rclavicle -5.008195301324428e-15 -1.0203021539510821e-14
rhumerus -7.274749486824675 -0.5490882309781693 -102.43298332702301
rradius 23.04671736676209
rwrist -43.59399071228293
rhand -15.75631567878111 -7.124925591388955
rfingers 7.125020000000001
rthumb 10.435284300918681 -36.8459849869142
3
root -6.047581510830681 17.824905163632724 0.24702594661031224 -106.226997874916 85.45708308061701 -124.25399685432026
lfemur -31.773588430363603 10.462696027884665 -8.787656880715812
ltibia 28.443700307781107
lfoot -10.337488147465052 -3.415963334136258
ltoes -21.747693200324814
rfemur -30.26639190405833 -1.8523464119393322 11.60841137995089
rtibia 26.291198010931158
rfoot -7.923752121972895 -9.872409792734002
rtoes -9.790599284103529
lowerback 0.41320728145570795 2.337039566449391 -1.2851287174503405
upperback 3.853279947181232 3.135659332294752 3.8018057530084683
thorax 3.460201692151732 1.5041787271817184 4.733064623044994
lowerneck -15.438384632262407 -2.443638618446642 0.8054307380866402
upperneck 39.29807929470107 -0.49605313368308046 -3.7219324559251197
head 16.80417709019752 -0.026316519348117184 -1.725366929303538
lclavicle -5.008195414100948e-15 -1.0203021848176528e-14
lhumerus -9.868648655900216 -57.02499198383795 109.26597818382038
lradius 22.746110053384392
lwrist 30.801791691526333
lhand -3.835027922481835 70.64487920749801
lfingers 7.125020000000001
lthumb -158.08800796251586 80.57599899286869
rclavicle -5.008195414100948e-15 -1.0203021848176528e-14
rhumerus -8.023599327395388 0.14253846822060545 -102.46698330867619
rradius 24.399616866507294
rwrist -46.18638975315966
rhand -16.701915174374424 -6.629915913323909
rfingers 7.125020000000001
rthumb 9.52296480680517 -36.394685273691024
4
root -6.06597113950067 17.810905982118864 0.26979185994983085 -97.54919895221468 85.89138293684749 -115.35699800855518
lfemur -31.51108866665283 10.854395794867237 -8.791556876748947
ltibia 28.744299844035925
lfoot -10.545987991390179 -3.140283437643957
ltoes -20.548593565274075
rfemur -30.830891650236488 -0.8735712554255475 11.327711768850993
rtibia 27.23859699383442
rfoot -13.278989202903965 -6.346411173123531
rtoes 54.39937827013766
lowerback 0.6481538915686138 2.318649584615749 -1.7295183403011964
upperback 3.796920019274891 3.1164993468755364 3.8140357297672414
thorax 3.2481921253217902 1.4847887587155784 4.9820341209792165
lowerneck -14.774586322916075 -2.161918782669952 0.31631617375338816
upperneck 39.04197957636502 0.08371293117642375 -3.6887225045544776
head 16.528877940553745 0.14569703110521107 -1.5032190045320581
lclavicle -5.008195101548445e-15 -1.0203021611165448e-14
lhumerus -9.91946864171365 -61.63979071258207 108.5649784912836
lradius 23.683909596447876
lwrist 32.79309045930688
lhand -2.1025492579009235 72.36587846816059
lfingers 7.125020000000001
lthumb -156.42500929682808 79.05919908179447
rclavicle -5.008195101548445e-15 -1.0203021611165448e-14
rhumerus -9.466839020131218 1.8987417044153059 -102.64198321424419
rradius 26.361516141065664
rwrist -49.00768870934893
rhand -17.82361457603149 -6.929875718241767
rfingers 7.125020000000001
rthumb 8.44059540698532 -36.741185053508964
